<svg width="120" height="32" viewBox="0 0 120 32" fill="none" xmlns="http://www.w3.org/2000/svg">
  <rect width="32" height="32" rx="8" fill="#043fff"/>
  <path d="M8 24V8h4.8c1.6 0 2.933.467 4 1.4.8.667 1.2 1.533 1.2 2.6 0 .8-.267 1.533-.8 2.2-.533.667-1.2 1.067-2 1.2v.1c1.067.133 1.933.567 2.6 1.3.667.733 1 1.633 1 2.7 0 1.2-.433 2.167-1.3 2.9-.867.733-2 1.1-3.4 1.1H8v-.5zm2.4-9.6h2.2c.8 0 1.4-.2 1.8-.6.4-.4.6-.933.6-1.6s-.2-1.2-.6-1.6c-.4-.4-1-.6-1.8-.6h-2.2v4.4zm0 7.2h2.6c.933 0 1.633-.233 2.1-.7.467-.467.7-1.067.7-1.8s-.233-1.333-.7-1.8c-.467-.467-1.167-.7-2.1-.7h-2.6v5z" fill="white"/>
  <text x="40" y="20" font-family="Inter, sans-serif" font-size="18" font-weight="600" fill="#043fff">AI CV Generator</text>
</svg>